<svg width="208" height="115" viewBox="0 0 208 115" fill="none" xmlns="http://www.w3.org/2000/svg">
<path d="M8.4 0.399999V17.2H0V0.399999H8.4ZM16.7945 0.399999V17.2H8.39453V0.399999H16.7945ZM22.6691 6.42V20H21.5491V7.54H16.7191V6.42H22.6691ZM20.4291 8.66V20H19.3091V9.78H16.7191V8.66H20.4291ZM50.3727 0.399999V17.2H41.9727V0.399999H50.3727ZM58.7672 0.399999V17.2H50.3672V0.399999H58.7672ZM64.6417 6.42V20H63.5217V7.54H58.6917V6.42H64.6417ZM62.4017 8.66V20H61.2817V9.78H58.6917V8.66H62.4017ZM83.9508 0.399999V17.2H75.5508V0.399999H83.9508ZM92.3453 0.399999V17.2H83.9453V0.399999H92.3453ZM100.74 0.399999V17.2H92.3398V0.399999H100.74ZM109.134 0.399999V17.2H100.734V0.399999H109.134ZM117.529 0.399999V17.2H109.129V0.399999H117.529ZM125.923 0.399999V17.2H117.523V0.399999H125.923ZM131.798 6.42V20H130.678V7.54H125.848V6.42H131.798ZM129.558 8.66V20H128.438V9.78H125.848V8.66H129.558ZM151.107 0.399999V17.2H142.707V0.399999H151.107ZM159.502 0.399999V17.2H151.102V0.399999H159.502ZM165.376 6.42V20H164.256V7.54H159.426V6.42H165.376ZM163.136 8.66V20H162.016V9.78H159.426V8.66H163.136ZM193.08 0.399999V17.2H184.68V0.399999H193.08ZM201.474 0.399999V17.2H193.074V0.399999H201.474ZM207.349 6.42V20H206.229V7.54H201.399V6.42H207.349ZM205.109 8.66V20H203.989V9.78H201.399V8.66H205.109ZM8.4 21.4V38.2H0V21.4H8.4ZM16.7945 21.4V38.2H8.39453V21.4H16.7945ZM22.6691 20V41H21.5491V20H22.6691ZM20.4291 20V41H19.3091V20H20.4291ZM50.3727 21.4V38.2H41.9727V21.4H50.3727ZM58.7672 21.4V38.2H50.3672V21.4H58.7672ZM64.6417 20V41H63.5217V20H64.6417ZM62.4017 20V41H61.2817V20H62.4017ZM75.5563 21.4V38.2H67.1562V21.4H75.5563ZM83.9508 21.4V38.2H75.5508V21.4H83.9508ZM92.4153 27.42V28.54H87.5853V41H86.4653V27.42H92.4153ZM92.4153 29.66V30.78H89.8253V41H88.7053V29.66H92.4153ZM100.81 27.42V28.54H92.2698V27.42H100.81ZM100.81 29.66V30.78H92.2698V29.66H100.81ZM109.134 21.4V38.2H100.734V21.4H109.134ZM117.529 21.4V38.2H109.129V21.4H117.529ZM125.923 21.4V38.2H117.523V21.4H125.923ZM134.318 21.4V38.2H125.918V21.4H134.318ZM140.193 27.42V41H139.073V28.54H134.242V27.42H140.193ZM137.953 29.66V41H136.833V30.78H134.242V29.66H137.953ZM151.107 21.4V38.2H142.707V21.4H151.107ZM159.502 21.4V38.2H151.102V21.4H159.502ZM165.376 20V41H164.256V20H165.376ZM163.136 20V41H162.016V20H163.136ZM193.08 21.4V38.2H184.68V21.4H193.08ZM201.474 21.4V38.2H193.074V21.4H201.474ZM207.349 20V41H206.229V20H207.349ZM205.109 20V41H203.989V20H205.109ZM8.4 42.4V59.2H0V42.4H8.4ZM16.7945 42.4V59.2H8.39453V42.4H16.7945ZM25.1891 42.4V59.2H16.7891V42.4H25.1891ZM33.5836 42.4V59.2H25.1836V42.4H33.5836ZM41.9781 42.4V59.2H33.5781V42.4H41.9781ZM50.3727 42.4V59.2H41.9727V42.4H50.3727ZM58.7672 42.4V59.2H50.3672V42.4H58.7672ZM64.6417 41V62H63.5217V41H64.6417ZM62.4017 41V62H61.2817V41H62.4017ZM75.5563 42.4V59.2H67.1562V42.4H75.5563ZM83.9508 42.4V59.2H75.5508V42.4H83.9508ZM89.8253 41V62H88.7053V41H89.8253ZM87.5853 41V62H86.4653V41H87.5853ZM100.74 42.4V59.2H92.3398V42.4H100.74ZM109.134 42.4V59.2H100.734V42.4H109.134ZM117.599 48.42V49.54H112.769V62H111.649V48.42H117.599ZM117.599 50.66V51.78H115.009V62H113.889V50.66H117.599ZM125.923 42.4V59.2H117.523V42.4H125.923ZM134.318 42.4V59.2H125.918V42.4H134.318ZM140.193 41V62H139.073V41H140.193ZM137.953 41V62H136.833V41H137.953ZM151.107 42.4V59.2H142.707V42.4H151.107ZM159.502 42.4V59.2H151.102V42.4H159.502ZM167.896 42.4V59.2H159.496V42.4H167.896ZM176.291 42.4V59.2H167.891V42.4H176.291ZM184.685 42.4V59.2H176.285V42.4H184.685ZM193.08 42.4V59.2H184.68V42.4H193.08ZM201.474 42.4V59.2H193.074V42.4H201.474ZM207.349 41V62H206.229V41H207.349ZM205.109 41V62H203.989V41H205.109ZM3.64 62V71.66H8.47V72.78H2.52V62H3.64ZM5.88 62V69.42H8.47V70.54H4.76V62H5.88ZM16.8645 69.42V70.54H8.32453V69.42H16.8645ZM16.8645 71.66V72.78H8.32453V71.66H16.8645ZM25.2591 69.42V70.54H16.7191V69.42H25.2591ZM25.2591 71.66V72.78H16.7191V71.66H25.2591ZM33.6536 69.42V70.54H25.1136V69.42H33.6536ZM33.6536 71.66V72.78H25.1136V71.66H33.6536ZM42.0481 69.42V70.54H33.5081V69.42H42.0481ZM42.0481 71.66V72.78H33.5081V71.66H42.0481ZM50.3727 63.4V80.2H41.9727V63.4H50.3727ZM58.7672 63.4V80.2H50.3672V63.4H58.7672ZM64.6417 62V83H63.5217V62H64.6417ZM62.4017 62V83H61.2817V62H62.4017ZM75.5563 63.4V80.2H67.1562V63.4H75.5563ZM83.9508 63.4V80.2H75.5508V63.4H83.9508ZM92.3453 63.4V80.2H83.9453V63.4H92.3453ZM100.74 63.4V80.2H92.3398V63.4H100.74ZM109.204 69.42V70.54H104.374V83H103.254V69.42H109.204ZM109.204 71.66V72.78H106.614V83H105.494V71.66H109.204ZM115.009 62V72.78H109.059V71.66H113.889V62H115.009ZM112.769 62V70.54H109.059V69.42H111.649V62H112.769ZM125.923 63.4V80.2H117.523V63.4H125.923ZM134.318 63.4V80.2H125.918V63.4H134.318ZM140.193 62V83H139.073V62H140.193ZM137.953 62V83H136.833V62H137.953ZM146.347 62V71.66H151.177V72.78H145.227V62H146.347ZM148.587 62V69.42H151.177V70.54H147.467V62H148.587ZM159.572 69.42V70.54H151.032V69.42H159.572ZM159.572 71.66V72.78H151.032V71.66H159.572ZM167.966 69.42V70.54H159.426V69.42H167.966ZM167.966 71.66V72.78H159.426V71.66H167.966ZM176.361 69.42V70.54H167.821V69.42H176.361ZM176.361 71.66V72.78H167.821V71.66H176.361ZM184.755 69.42V70.54H176.215V69.42H184.755ZM184.755 71.66V72.78H176.215V71.66H184.755ZM193.08 63.4V80.2H184.68V63.4H193.08ZM201.474 63.4V80.2H193.074V63.4H201.474ZM207.349 62V83H206.229V62H207.349ZM205.109 62V83H203.989V62H205.109ZM50.3727 84.4V101.2H41.9727V84.4H50.3727ZM58.7672 84.4V101.2H50.3672V84.4H58.7672ZM64.6417 83V104H63.5217V83H64.6417ZM62.4017 83V104H61.2817V83H62.4017ZM70.7963 83V92.66H75.6263V93.78H69.6763V83H70.7963ZM73.0363 83V90.42H75.6263V91.54H71.9163V83H73.0363ZM83.9508 84.4V101.2H75.5508V84.4H83.9508ZM92.3453 84.4V101.2H83.9453V84.4H92.3453ZM100.74 84.4V101.2H92.3398V84.4H100.74ZM109.134 84.4V101.2H100.734V84.4H109.134ZM117.529 84.4V101.2H109.129V84.4H117.529ZM125.923 84.4V101.2H117.523V84.4H125.923ZM134.388 90.42V91.54H129.558V104H128.438V90.42H134.388ZM134.388 92.66V93.78H131.798V104H130.678V92.66H134.388ZM140.193 83V93.78H134.242V92.66H139.073V83H140.193ZM137.953 83V91.54H134.242V90.42H136.833V83H137.953ZM193.08 84.4V101.2H184.68V84.4H193.08ZM201.474 84.4V101.2H193.074V84.4H201.474ZM207.349 83V104H206.229V83H207.349ZM205.109 83V104H203.989V83H205.109ZM45.6127 104V113.66H50.4427V114.78H44.4927V104H45.6127ZM47.8527 104V111.42H50.4427V112.54H46.7327V104H47.8527ZM58.8372 111.42V112.54H50.2972V111.42H58.8372ZM58.8372 113.66V114.78H50.2972V113.66H58.8372ZM64.6417 104V114.78H58.6917V113.66H63.5217V104H64.6417ZM62.4017 104V112.54H58.6917V111.42H61.2817V104H62.4017ZM79.1908 104V113.66H84.0208V114.78H78.0708V104H79.1908ZM81.4308 104V111.42H84.0208V112.54H80.3108V104H81.4308ZM92.4153 111.42V112.54H83.8753V111.42H92.4153ZM92.4153 113.66V114.78H83.8753V113.66H92.4153ZM100.81 111.42V112.54H92.2698V111.42H100.81ZM100.81 113.66V114.78H92.2698V113.66H100.81ZM109.204 111.42V112.54H100.664V111.42H109.204ZM109.204 113.66V114.78H100.664V113.66H109.204ZM117.599 111.42V112.54H109.059V111.42H117.599ZM117.599 113.66V114.78H109.059V113.66H117.599ZM125.993 111.42V112.54H117.453V111.42H125.993ZM125.993 113.66V114.78H117.453V113.66H125.993ZM131.798 104V114.78H125.848V113.66H130.678V104H131.798ZM129.558 104V112.54H125.848V111.42H128.438V104H129.558ZM188.32 104V113.66H193.15V114.78H187.2V104H188.32ZM190.56 104V111.42H193.15V112.54H189.44V104H190.56ZM201.544 111.42V112.54H193.004V111.42H201.544ZM201.544 113.66V114.78H193.004V113.66H201.544ZM207.349 104V114.78H201.399V113.66H206.229V104H207.349ZM205.109 104V112.54H201.399V111.42H203.989V104H205.109Z" fill="#90A1B9"/>
</svg>
